<?xml version="1.0" encoding="UTF-8"?>
<svg width="44px" height="41px" viewBox="0 0 44 41" version="1.1" xmlns="http://www.w3.org/2000/svg" xmlns:xlink="http://www.w3.org/1999/xlink">
    <!-- Generator: Sketch 52.4 (67378) - http://www.bohemiancoding.com/sketch -->
    <title>形状</title>
    <desc>Created with Sketch.</desc>
    <g id="Page-1" stroke="none" stroke-width="1"  fill-rule="evenodd">
        <g id="医生系统首页-copy" transform="translate(-100.000000, -181.000000)"  fill-rule="nonzero">
            <g id="home" transform="translate(90.000000, 169.000000)">
                <path d="M53.5835,32.9375 L32.6795,12.3015 C32.2775,11.8995 31.6075,11.8995 31.2055,12.3015 L15.5275,27.8455 C15.5275,27.8455 15.5275,27.8455 15.5275,27.8455 L10.3015,32.9375 C9.8995,33.3395 9.8995,34.0095 10.3015,34.4115 C10.7035,34.8135 11.3735,34.8135 11.7755,34.4115 L15.2595,31.0615 L15.2595,48.2135 C15.2595,50.4915 17.1355,52.3675 19.4135,52.3675 L26.7835,52.3675 C27.3195,52.3675 27.8555,51.9655 27.8555,51.2955 L27.8555,42.0495 L37.2355,42.0495 C37.7715,42.0495 38.3075,41.6475 38.3075,40.9775 C38.3075,40.4415 37.9055,39.9055 37.2355,39.9055 L26.7835,39.9055 C26.2475,39.9055 25.7115,40.3075 25.7115,40.9775 L25.7115,50.2235 L19.4135,50.2235 C18.2075,50.2235 17.2695,49.2855 17.2695,48.2135 L17.2695,28.9175 L31.8755,14.4455 L51.9755,34.2775 C52.2435,34.5455 52.5115,34.5455 52.7795,34.5455 C53.0475,34.5455 53.3155,34.4115 53.5835,34.2775 C53.9855,34.0095 53.9855,33.3395 53.5835,32.9375 Z M47.5535,35.7515 C47.0175,35.7515 46.4815,36.1535 46.4815,36.8235 L46.4815,48.2135 C46.4815,49.2855 45.5435,50.2235 44.3375,50.2235 L36.9675,50.2235 C36.4315,50.2235 35.8955,50.6255 35.8955,51.2955 C35.8955,51.8315 36.2975,52.3675 36.9675,52.3675 L44.3375,52.3675 C46.6155,52.3675 48.4915,50.4915 48.4915,48.2135 L48.4915,36.8235 C48.6255,36.1535 48.2235,35.7515 47.5535,35.7515 Z" id="形状"></path>
            </g>
        </g>
    </g>
</svg>