<?xml version="1.0" encoding="UTF-8"?>
<svg width="41px" height="41px" viewBox="0 0 41 41" version="1.1" xmlns="http://www.w3.org/2000/svg" xmlns:xlink="http://www.w3.org/1999/xlink">
    <!-- Generator: Sketch 52.4 (67378) - http://www.bohemiancoding.com/sketch -->
    <title>形状</title>
    <desc>Created with Sketch.</desc>
    <g id="Page-1" stroke="none" stroke-width="1" fill-rule="evenodd">
        <g id="医生系统首页-copy" transform="translate(-101.000000, -520.000000)"  fill-rule="nonzero">
            <g id="message" transform="translate(99.000000, 518.000000)">
                <path d="M28.125,18.28125 L16.875,18.28125 C16.09875,18.28125 15.46875,17.65125 15.46875,16.875 C15.46875,16.09875 16.09875,15.46875 16.875,15.46875 L28.125,15.46875 C28.9026562,15.46875 29.53125,16.09875 29.53125,16.875 C29.53125,17.65125 28.9026562,18.28125 28.125,18.28125 Z M25.4559375,23.90625 L16.875,23.90625 C16.09875,23.90625 15.46875,23.27625 15.46875,22.5 C15.46875,21.72375 16.09875,21.09375 16.875,21.09375 L25.4559375,21.09375 C26.2335937,21.09375 26.8621875,21.72375 26.8621875,22.5 C26.8621875,23.27625 26.2321875,23.90625 25.4559375,23.90625 Z M42.2859375,19.6875 C42.2859375,10.3823438 33.4546875,2.8125 22.5984375,2.8125 C11.7421875,2.8125 2.9109375,10.3823438 2.9109375,19.6875 C2.9109375,24.8076562 5.68125,29.62125 10.5103125,32.900625 C11.1529687,33.339375 12.0276562,33.170625 12.4635937,32.5265625 C12.8995312,31.8839062 12.7321875,31.0092188 12.0895312,30.5732813 C8.04375,27.826875 5.7234375,23.8598437 5.7234375,19.6875 C5.7234375,11.9334375 13.2932812,5.625 22.5984375,5.625 C31.9035937,5.625 39.4734375,11.9334375 39.4734375,19.6875 C39.4734375,27.4415625 31.9035937,33.75 22.5984375,33.75 C22.51125,33.75 22.4367187,33.78375 22.35375,33.7992188 C21.6885937,33.6796875 21.015,34.0284375 20.7815625,34.6865625 C20.5115625,35.4501562 18.7439062,36.736875 16.644375,37.929375 C17.4107812,35.3714062 17.04375,34.8229688 16.7976562,34.45875 C16.5023437,34.02 16.0101562,33.7584375 15.4828125,33.7584375 C14.7065625,33.7584375 14.0765625,34.3870312 14.0765625,35.1646875 C14.0765625,35.420625 14.1440625,35.6596875 14.2635937,35.8664062 C14.1215625,36.6665625 13.5070312,38.5396875 12.8109375,40.2539062 C12.594375,40.7854687 12.72375,41.3957812 13.1357812,41.7951562 C13.4029687,42.0539063 13.7559375,42.1903125 14.1145312,42.1903125 C14.3071875,42.1903125 14.50125,42.1509375 14.6854687,42.069375 C16.2885937,41.355 21.1739062,39.031875 22.9303125,36.5484375 C33.6332812,36.39375 42.2859375,28.8970312 42.2859375,19.6875 Z" id="形状"></path>
            </g>
        </g>
    </g>
</svg>