<?xml version="1.0" encoding="UTF-8"?>
<svg width="37px" height="38px" viewBox="0 0 37 38" version="1.1" xmlns="http://www.w3.org/2000/svg" xmlns:xlink="http://www.w3.org/1999/xlink">
    <!-- Generator: Sketch 52.4 (67378) - http://www.bohemiancoding.com/sketch -->
    <title>形状</title>
    <desc>Created with Sketch.</desc>
    <g id="Page-1" stroke="none" stroke-width="1"  fill-rule="evenodd">
        <g id="医生系统首页-copy" transform="translate(-103.000000, -358.000000)" fill-rule="nonzero">
            <g id="个人诊断" transform="translate(103.000000, 358.000000)">
                <path d="M33.8559711,26.9821481 L33.8582847,28.5692333 C35.7160535,29.1267953 36.9815573,30.7832866 36.9884979,32.6595637 C36.9884979,35.0286238 34.9803493,36.9465444 32.5048666,36.9465444 C30.0293839,36.9465444 28.0258623,35.0263102 28.0258623,32.6595637 C28.0258623,30.7647783 29.3098744,29.1614984 31.0866695,28.5946822 L31.0866695,26.9821481 C31.0866695,25.2099801 29.5828716,23.7663342 27.7274163,23.7663342 L27.3318017,23.7663342 C25.47866,23.7663342 23.9725486,25.2099802 23.9725486,26.9821481 L23.9725486,31.1465116 C23.9563538,34.3970286 21.212501,37.0228911 17.8416802,37.0113234 L17.4483792,37.0113234 C14.0706178,37.0113234 11.3198244,34.3785203 11.3198244,31.1465116 L11.3198244,23.3475843 L11.2041476,23.3475843 C10.5623529,23.3463084 10.0427516,22.825672 10.0427529,22.1838761 C2.93094556,21.7327367 1.5289432,16.6614674 0.476284676,10.660157 L0.235676991,9.2859171 C-0.250165415,6.61609742 0.073729522,3.65477231 1.26982727,2.24582934 C2.08419165,1.27877164 3.28260293,0.679566016 4.57355557,0.589338121 L6.71126213,0.589338121 C7.08364966,0.212398892 7.59267156,0.0021144385 8.12251863,0.00632724814 C9.19137191,0.00401371236 10.0635747,0.836886413 10.0682018,1.86640958 C10.0605217,2.61937694 9.60180837,3.29422351 8.90449354,3.57842566 C8.19872717,3.87578757 7.38501843,3.74271696 6.81074417,3.23602244 L4.66378347,3.23602244 C4.16579,3.30515428 3.71221055,3.55962144 3.39365261,3.94859128 C2.75743041,4.7305662 2.63249952,7.00245779 2.96333506,8.83015066 L3.20856978,10.2182718 C4.39309982,16.9969301 5.63084117,19.1022471 10.0427529,19.5279376 C10.0427529,18.9217914 10.5355359,18.4290084 11.1416821,18.4290084 L14.1608456,18.4290084 C14.7531106,18.4290084 15.2320124,18.9079102 15.2320124,19.5001752 C19.4588413,18.9125373 20.8400219,16.8696856 22.0037301,10.2205853 L22.2489648,8.8324642 C22.5844274,6.97700893 22.2836679,4.69123612 21.6219968,3.91620182 C21.3057623,3.54542187 20.8645787,3.30342935 20.3819419,3.23602244 L18.2303541,3.23602244 C17.6570382,3.74257376 16.8444741,3.87650303 16.1389182,3.5807392 C15.4416034,3.29653704 14.9828902,2.62169047 14.97521,1.86872312 C14.97521,1.37362657 15.1834282,0.897038307 15.5466532,0.550008012 C15.9167893,0.196986656 16.4094078,0.00126614967 16.9208931,0.00401371236 C17.4530063,0.00401371236 17.961984,0.216858968 18.3275226,0.589338121 L20.4629156,0.589338121 C21.7440586,0.672406536 22.9372217,1.26982242 23.771271,2.24582934 C24.9673687,3.65708585 25.4601517,6.61609742 24.9743093,9.2859171 L24.7337017,10.6578435 C23.6949244,16.5943749 22.1425422,21.5545945 15.234326,22.1676813 L15.234326,22.2023843 C15.234326,22.8348608 14.7216025,23.3475843 14.089126,23.3475843 L14.089126,31.1441981 C14.089126,32.9186796 15.5952375,34.3600121 17.4483792,34.3600121 L17.8439937,34.3600121 C19.6971354,34.3600121 21.2032469,32.9186796 21.2032469,31.1441981 L21.2032469,26.9798346 C21.2194417,23.7316311 23.9632944,21.1080822 27.3341153,21.1173363 L27.7274163,21.1173363 C31.1074913,21.1173363 33.8559711,23.7501394 33.8559711,26.9821481 Z M32.5071801,34.9754124 C33.7849103,34.9754124 34.8207153,33.9396074 34.8207153,32.6618772 C34.8207153,31.384147 33.7849103,30.3483419 32.5071801,30.3483419 C31.2294499,30.3483419 30.1936449,31.384147 30.1936449,32.6618772 C30.1936449,33.9396074 31.2294499,34.9754124 32.5071801,34.9754124 Z" id="形状"></path>
            </g>
        </g>
    </g>
</svg>